<svg width="200" height="200" viewBox="0 0 200 200" fill="none" xmlns="http://www.w3.org/2000/svg">
<path d="M200 100C200 155.228 155.228 200 100 200C44.7715 200 0 155.228 0 100C0 44.7715 44.7715 0 100 0C155.228 0 200 44.7715 200 100Z" fill="url(#paint0_linear_44_54)"/>
<path d="M70.0524 101.696C69.6506 101.696 69.258 101.57 68.9246 101.333C40.9019 81.4057 35.4703 62.2476 35.2326 61.4409C35.1053 60.9027 35.1811 60.3333 35.4439 59.8531C35.7068 59.3729 36.1361 59.0194 36.6411 58.8675C37.1461 58.7156 37.6873 58.777 38.1502 59.0389C38.6131 59.3008 38.9615 59.7426 39.1217 60.2709C39.1723 60.4472 44.4926 78.82 71.165 97.7858C71.5251 98.0415 71.7979 98.4127 71.9431 98.8447C72.0882 99.2766 72.098 99.7465 71.971 100.185C71.8441 100.623 71.5871 101.007 71.2379 101.279C70.8888 101.551 70.466 101.698 70.0321 101.696H70.0524Z" fill="#231F20"/>
<path d="M140.648 99.1963C130.194 99.1963 114.001 85.1776 111.937 83.3452C111.702 83.1772 111.503 82.9589 111.353 82.7045C111.203 82.45 111.106 82.1651 111.067 81.8682C111.028 81.5714 111.049 81.2692 111.128 80.9813C111.206 80.6934 111.342 80.4262 111.525 80.1971C111.708 79.9681 111.934 79.7822 112.19 79.6517C112.445 79.5211 112.723 79.4487 113.007 79.4393C113.291 79.4298 113.573 79.4835 113.836 79.5968C114.098 79.7101 114.335 79.8805 114.532 80.0969C118.332 83.3779 122.331 86.3939 126.502 89.1257C134.25 94.121 140.263 96.071 142.994 94.4148C149.038 90.7979 148.699 76.0847 148.052 70.7209C148.018 70.4424 148.037 70.1596 148.108 69.8889C148.178 69.6181 148.298 69.3646 148.461 69.1429C148.624 68.9211 148.827 68.7355 149.057 68.5965C149.288 68.4575 149.543 68.3679 149.807 68.3328C150.07 68.2977 150.338 68.3178 150.594 68.392C150.85 68.4662 151.09 68.593 151.3 68.7651C151.51 68.9373 151.686 69.1514 151.818 69.3953C151.949 69.6392 152.034 69.9081 152.067 70.1866C152.46 73.9836 152.52 77.811 152.244 81.6195C151.587 90.0874 149.144 95.6436 144.982 98.1332C143.65 98.8808 142.155 99.2473 140.648 99.1963Z" fill="#231F20"/>
<path d="M60.0894 144.933C59.5529 144.938 59.0365 144.718 58.6538 144.321C58.2711 143.923 58.0535 143.382 58.0488 142.815C58.0441 142.248 58.2527 141.703 58.6288 141.298C59.0048 140.894 59.5175 140.664 60.054 140.659C66.2088 140.536 70.9526 138.597 74.1589 134.879C79.5146 128.671 78.933 119.524 78.928 119.434C78.9081 119.153 78.9407 118.871 79.0239 118.604C79.1072 118.336 79.2395 118.089 79.4132 117.875C79.587 117.662 79.7988 117.487 80.0366 117.36C80.2744 117.233 80.5336 117.157 80.7992 117.136C81.0649 117.115 81.3318 117.15 81.5849 117.238C81.8379 117.326 82.0721 117.465 82.2741 117.649C82.476 117.832 82.6417 118.056 82.7618 118.307C82.8819 118.559 82.9539 118.832 82.9739 119.113C83.0042 119.562 83.6768 130.199 77.1579 137.758C73.1778 142.374 67.4478 144.789 60.1349 144.933H60.0894Z" fill="#231F20"/>
<path d="M136.303 140.499C135.844 140.499 135.399 140.334 135.041 140.031C134.682 139.728 134.432 139.305 134.331 138.832C130.978 123.168 110.253 122.66 110.056 122.655C109.79 122.651 109.528 122.591 109.284 122.48C109.04 122.369 108.819 122.208 108.634 122.007C108.261 121.6 108.055 121.053 108.063 120.486C108.071 119.919 108.292 119.379 108.677 118.984C109.062 118.59 109.58 118.373 110.117 118.381C114.328 118.567 118.491 119.405 122.472 120.871C131.13 124.103 136.597 129.99 138.286 137.892C138.404 138.443 138.311 139.021 138.026 139.5C137.742 139.978 137.29 140.318 136.769 140.446C136.616 140.483 136.46 140.501 136.303 140.499Z" fill="#231F20"/>
<path d="M96.5478 130.332C114.829 130.332 129.648 114.677 129.648 95.3657C129.648 76.0542 114.829 60.3992 96.5478 60.3992C78.267 60.3992 63.4475 76.0542 63.4475 95.3657C63.4475 114.677 78.267 130.332 96.5478 130.332Z" fill="#FFD600"/>
<path d="M96.5477 60.3993C103.095 60.3982 109.495 62.4481 114.939 66.2896C120.383 70.1311 124.626 75.5918 127.132 81.981C129.638 88.3702 130.294 95.401 129.018 102.184C127.741 108.967 124.589 115.198 119.96 120.089C115.331 124.98 109.433 128.31 103.012 129.66C96.5912 131.01 89.9356 130.318 83.887 127.671C77.8384 125.025 72.6686 120.543 69.0312 114.793C65.3939 109.042 63.4525 102.282 63.4525 95.3658C63.4525 86.093 66.9391 77.2 73.1455 70.6426C79.3519 64.0853 87.7698 60.4007 96.5477 60.3993ZM96.5477 59.865C89.8981 59.865 83.3977 61.9481 77.8688 65.8507C72.3398 69.7533 68.0305 75.3003 65.4858 81.7902C62.9411 88.28 62.2753 95.4213 63.5725 102.311C64.8698 109.2 68.0719 115.529 72.7739 120.496C77.4759 125.463 83.4667 128.846 89.9885 130.216C96.5104 131.587 103.27 130.883 109.414 128.195C115.557 125.507 120.808 120.955 124.503 115.114C128.197 109.273 130.169 102.406 130.169 95.3819C130.162 85.9629 126.618 76.9315 120.315 70.2698C114.012 63.6081 105.464 59.8603 96.5477 59.849V59.865Z" fill="#231F20"/>
<path d="M88.284 87.2344C88.0828 87.2344 87.8899 87.15 87.7476 86.9997C87.6054 86.8494 87.5254 86.6456 87.5254 86.4331C87.5254 82.9498 86.3976 80.6418 85.6542 80.6418C84.9108 80.6418 83.783 82.9498 83.783 86.4331C83.783 86.6456 83.7031 86.8494 83.5608 86.9997C83.4186 87.15 83.2256 87.2344 83.0244 87.2344C82.8232 87.2344 82.6303 87.15 82.488 86.9997C82.3457 86.8494 82.2658 86.6456 82.2658 86.4331C82.2658 82.8483 83.4543 79.0391 85.6542 79.0391C87.8542 79.0391 89.0426 82.8483 89.0426 86.4331C89.0426 86.6456 88.9627 86.8494 88.8204 86.9997C88.6782 87.15 88.4852 87.2344 88.284 87.2344Z" fill="#231F20"/>
<path d="M110.081 87.2344C109.88 87.2344 109.687 87.15 109.545 86.9997C109.402 86.8494 109.323 86.6456 109.323 86.4331C109.323 82.9498 108.195 80.6418 107.451 80.6418C106.708 80.6418 105.58 82.9498 105.58 86.4331C105.58 86.6456 105.5 86.8494 105.358 86.9997C105.216 87.15 105.023 87.2344 104.822 87.2344C104.62 87.2344 104.427 87.15 104.285 86.9997C104.143 86.8494 104.063 86.6456 104.063 86.4331C104.063 82.8483 105.251 79.0391 107.451 79.0391C109.651 79.0391 110.84 82.8483 110.84 86.4331C110.84 86.6456 110.76 86.8494 110.618 86.9997C110.475 87.15 110.282 87.2344 110.081 87.2344Z" fill="#231F20"/>
<path d="M114.987 102.69C114.987 110.843 106.733 117.446 96.5477 117.446C86.3623 117.446 78.1087 110.843 78.1087 102.69H114.987Z" fill="#231F20"/>
<path d="M144.567 78.2217C142.317 76.7846 140.926 71.4421 141.3 68.5091C141.674 65.576 143.04 65.9927 144.542 65.7149C144.385 64.5129 144.264 63.1612 144.982 62.2156C145.377 61.7362 145.879 61.3689 146.443 61.1471C149.574 59.7405 153.097 59.664 156.28 60.9334C156.889 61.1424 157.439 61.5098 157.878 62.0019C158.238 62.5203 158.479 63.1203 158.581 63.7542C159.881 69.7165 157.099 73.5951 156.442 79.1673L150.08 78.6972C148.659 78.5957 145.872 78.991 144.623 78.2431C144.603 78.2388 144.585 78.2316 144.567 78.2217Z" fill="white"/>
<path d="M156.442 79.4559L150.08 78.9911C149.675 78.959 149.134 78.9911 148.562 78.9911C147.111 79.0285 145.462 79.0659 144.517 78.5049L144.451 78.4675C141.988 76.8648 140.698 71.3246 141.057 68.4824C141.401 65.8112 142.575 65.683 143.814 65.5441L144.269 65.4906C144.122 64.2512 144.082 62.9957 144.8 62.0447C145.225 61.541 145.762 61.1572 146.363 60.9282C149.554 59.4851 153.151 59.4066 156.396 60.7091C157.047 60.9291 157.633 61.3208 158.101 61.8471C158.487 62.3993 158.745 63.0399 158.854 63.7169C159.704 67.6116 158.854 70.5981 157.949 73.7608C157.391 75.5398 156.979 77.3667 156.72 79.2208C156.711 79.2903 156.677 79.3535 156.625 79.3972C156.574 79.441 156.508 79.462 156.442 79.4559ZM149.448 78.4195C149.68 78.4195 149.903 78.4195 150.095 78.4195L156.214 78.8682C156.483 77.0718 156.889 75.3013 157.428 73.5738C158.313 70.4859 159.147 67.5689 158.323 63.8131C158.231 63.2208 158.009 62.6593 157.676 62.173C157.264 61.7223 156.753 61.3863 156.189 61.1953C153.071 59.9451 149.616 60.0197 146.55 61.4036C146.029 61.6068 145.562 61.9362 145.184 62.3653C144.542 63.2094 144.643 64.4542 144.8 65.6563C144.81 65.727 144.794 65.7992 144.754 65.8572C144.714 65.9152 144.654 65.9543 144.587 65.9661C144.335 66.0089 144.082 66.0409 143.849 66.0676C142.686 66.1959 141.826 66.2867 141.558 68.5252C141.174 71.5276 142.63 76.6404 144.699 77.9653L144.749 77.9974C145.569 78.4889 147.207 78.4462 148.527 78.4141L149.448 78.4195Z" fill="#231F20"/>
<path d="M144.133 80.746L157.631 80.3182C158.745 80.2829 159.621 79.2999 159.588 78.1226L159.58 77.8395C159.547 76.6622 158.616 75.7364 157.502 75.7718L144.004 76.1995C142.889 76.2349 142.013 77.2179 142.046 78.3951L142.054 78.6783C142.088 79.8556 143.018 80.7813 144.133 80.746Z" fill="white"/>
<path d="M144.041 81.3899C143.451 81.3874 142.885 81.1434 142.461 80.709C142.038 80.2746 141.79 79.6837 141.77 79.0605V78.7774C141.751 78.1392 141.973 77.519 142.386 77.0532C142.8 76.5874 143.371 76.314 143.975 76.2931L157.468 75.839C157.768 75.8274 158.066 75.8786 158.346 75.9895C158.627 76.1005 158.884 76.269 159.102 76.4855C159.541 76.9229 159.799 77.5257 159.82 78.163V78.4515C159.83 78.767 159.781 79.0815 159.676 79.377C159.571 79.6724 159.412 79.9431 159.207 80.1734C159.003 80.4037 158.757 80.5891 158.485 80.719C158.213 80.8489 157.919 80.9207 157.62 80.9304L144.122 81.3899H144.041ZM143.98 76.8434C143.515 76.8601 143.076 77.0708 142.757 77.4292C142.439 77.7876 142.268 78.2647 142.281 78.756V79.0445C142.288 79.288 142.341 79.5276 142.436 79.7496C142.531 79.9716 142.666 80.1717 142.834 80.3384C143.002 80.5052 143.2 80.6352 143.416 80.7212C143.632 80.8072 143.861 80.8474 144.092 80.8396L157.59 80.3801C157.82 80.3732 158.047 80.3182 158.257 80.2181C158.468 80.118 158.657 79.9749 158.814 79.7971C158.972 79.6192 159.095 79.4101 159.175 79.1819C159.256 78.9537 159.293 78.7109 159.284 78.4675V78.1844C159.268 77.6931 159.069 77.2284 158.729 76.892C158.39 76.5556 157.939 76.3749 157.473 76.3893L143.975 76.8434H143.98Z" fill="#231F20"/>
<path d="M74.083 96.3541C76.3063 96.3541 78.1086 95.1438 78.1086 93.6508C78.1086 92.1578 76.3063 90.9475 74.083 90.9475C71.8597 90.9475 70.0574 92.1578 70.0574 93.6508C70.0574 95.1438 71.8597 96.3541 74.083 96.3541Z" fill="white"/>
<path d="M119.017 96.3541C121.241 96.3541 123.043 95.1438 123.043 93.6508C123.043 92.1578 121.241 90.9475 119.017 90.9475C116.794 90.9475 114.992 92.1578 114.992 93.6508C114.992 95.1438 116.794 96.3541 119.017 96.3541Z" fill="white"/>
<path d="M144.542 65.7149C144.542 65.7149 153.246 64.4167 152.366 66.949C151.486 69.4814 145.25 70.833 145.25 70.833C145.25 70.833 150.813 69.2303 152.118 73.6485" fill="white"/>
<path d="M152.118 73.921C152.062 73.9213 152.008 73.9027 151.964 73.8681C151.919 73.8334 151.886 73.7846 151.87 73.7286C151.364 72.0191 150.125 71.0574 148.183 70.8597C147.354 70.7878 146.52 70.8381 145.705 71.0093L145.3 71.1055C145.238 71.1112 145.175 71.0929 145.124 71.0541C145.073 71.0152 145.037 70.9582 145.022 70.8935C145.007 70.8289 145.015 70.7608 145.044 70.7016C145.073 70.6425 145.121 70.5962 145.179 70.5712L145.513 70.4964C146.777 70.1812 151.415 68.8937 152.123 66.8582C152.166 66.7741 152.185 66.6782 152.176 66.5828C152.167 66.4875 152.131 66.3973 152.072 66.324C151.339 65.3677 147.086 65.6027 144.577 65.9767C144.542 65.9875 144.504 65.9902 144.468 65.9844C144.431 65.9787 144.396 65.9648 144.365 65.9435C144.334 65.9223 144.308 65.8942 144.288 65.8613C144.268 65.8284 144.255 65.7914 144.25 65.7527C144.245 65.714 144.248 65.6747 144.258 65.6372C144.269 65.5998 144.287 65.5652 144.311 65.5358C144.336 65.5064 144.366 65.4828 144.399 65.4667C144.433 65.4506 144.469 65.4423 144.506 65.4425C145.199 65.3356 151.319 64.4755 152.477 65.9767C152.59 66.1244 152.663 66.3023 152.687 66.4907C152.711 66.6792 152.686 66.871 152.613 67.0452C152.108 68.5518 149.887 69.6363 148.031 70.3041C149.715 70.427 151.652 71.1322 152.365 73.563C152.376 73.5974 152.381 73.6337 152.378 73.6699C152.376 73.7061 152.367 73.7414 152.351 73.7737C152.336 73.8061 152.314 73.8348 152.288 73.8583C152.262 73.8817 152.231 73.8994 152.199 73.9103C152.172 73.9187 152.145 73.9224 152.118 73.921Z" fill="#231F20"/>
<path d="M48.4171 68.3434C49.8281 65.9981 48.8217 60.5594 47.2488 58.1072C45.676 55.655 44.6241 56.6594 43.1625 57.1242C42.8186 55.9649 42.3382 54.6987 41.3014 54.1858C40.7454 53.9564 40.1447 53.8739 39.5516 53.9454C36.1564 54.1581 32.9697 55.7465 30.6557 58.3797C30.1963 58.8488 29.857 59.4333 29.6695 60.0786C29.565 60.713 29.6031 61.3645 29.7808 61.9805C31.1261 67.9267 35.2326 70.0904 38.1911 74.7544L43.6885 71.3459C44.9174 70.5819 47.5776 69.6256 48.3817 68.3701L48.4171 68.3434Z" fill="white"/>
<path d="M38.1912 75.0482C38.1481 75.0486 38.1056 75.0375 38.0676 75.016C38.0296 74.9946 37.9974 74.9634 37.9737 74.9254C36.9593 73.387 35.8205 71.9445 34.5701 70.614C32.4258 68.2045 30.4079 65.934 29.5128 62.066C29.327 61.4094 29.2889 60.7161 29.4015 60.0412C29.5982 59.3396 29.9622 58.7031 30.4585 58.1927C32.8157 55.5025 36.0672 53.8808 39.5314 53.6676C40.1664 53.5964 40.8083 53.688 41.4026 53.9347C42.4494 54.469 42.9198 55.5962 43.3294 56.7716L43.7593 56.606C44.9326 56.1465 46.0351 55.7084 47.4663 57.9363C48.9835 60.3137 50.1771 65.9072 48.6396 68.4716L48.5992 68.5411C47.9923 69.4867 46.5004 70.224 45.1804 70.8811C44.6747 71.1375 44.1689 71.3779 43.82 71.597L38.3227 75.0108C38.2831 75.0363 38.2375 75.0493 38.1912 75.0482ZM39.9714 54.2125H39.5617C36.2324 54.4209 33.1083 55.981 30.8429 58.5667C30.4131 59.0104 30.0965 59.5618 29.9224 60.1694C29.8328 60.7584 29.8708 61.3612 30.0337 61.9324C30.8833 65.6722 32.8557 67.9 34.9494 70.2507C36.1597 71.5373 37.2693 72.9256 38.267 74.4018L43.557 71.1215C43.9312 70.8918 44.4319 70.6407 44.9629 70.3789C46.1565 69.7859 47.6383 69.054 48.1693 68.2419L48.1996 68.1885C49.4943 66.0515 48.6396 60.7624 47.0314 58.2568C45.853 56.3763 45.0439 56.6915 43.9464 57.1242C43.7188 57.215 43.4811 57.3058 43.2384 57.386C43.1733 57.4064 43.1033 57.3994 43.043 57.3666C42.9827 57.3337 42.9367 57.2775 42.9147 57.2097C42.5506 56.0557 42.1157 54.891 41.1851 54.453C40.8017 54.2806 40.3879 54.1968 39.9714 54.2072V54.2125Z" fill="#231F20"/>
<path d="M48.2475 66.5745L35.9756 72.5126C34.9624 73.0028 34.5172 74.2679 34.9813 75.3383L35.0929 75.5957C35.557 76.6661 36.7546 77.1363 37.7678 76.646L50.0398 70.708C51.053 70.2177 51.4981 68.9526 51.034 67.8823L50.9224 67.6248C50.4583 66.5545 49.2607 66.0843 48.2475 66.5745Z" fill="white"/>
<path d="M36.9319 77.1104C36.6606 77.1092 36.3917 77.0567 36.1379 76.9555C35.8566 76.8477 35.5984 76.6816 35.3787 76.4669C35.159 76.2522 34.9821 75.9933 34.8584 75.7053L34.7472 75.4435C34.6207 75.1554 34.5494 74.8436 34.5375 74.5262C34.5255 74.2088 34.573 73.892 34.6774 73.5941C34.7817 73.2962 34.9408 73.023 35.1455 72.7903C35.3501 72.5576 35.5963 72.3699 35.8699 72.2381L48.144 66.3132C48.417 66.1804 48.712 66.1057 49.0123 66.0934C49.3126 66.0811 49.6122 66.1314 49.894 66.2416C50.1759 66.3518 50.4344 66.5195 50.6548 66.7353C50.8752 66.9512 51.0531 67.2107 51.1784 67.4993L51.2897 67.7611C51.4162 68.0493 51.4874 68.361 51.4994 68.6784C51.5114 68.9958 51.4638 69.3126 51.3595 69.6105C51.2552 69.9084 51.0961 70.1816 50.8914 70.4143C50.6868 70.647 50.4406 70.8347 50.167 70.9665L37.8777 76.8914C37.5807 77.0346 37.2583 77.1092 36.9319 77.1104ZM49.0695 66.6498C48.8184 66.6502 48.5703 66.7066 48.3413 66.8154L36.0874 72.7563C35.8778 72.8577 35.6892 73.0016 35.5324 73.18C35.3755 73.3584 35.2534 73.5676 35.1731 73.7958C35.0928 74.024 35.0558 74.2667 35.0643 74.51C35.0728 74.7533 35.1266 74.9925 35.2226 75.2138L35.3338 75.4756C35.4298 75.697 35.5661 75.8962 35.7349 76.0619C35.9038 76.2276 36.1019 76.3566 36.3179 76.4414C36.5339 76.5262 36.7636 76.5653 36.994 76.5563C37.2243 76.5474 37.4507 76.4906 37.6602 76.3892L49.9394 70.4483C50.3608 70.2415 50.6876 69.8671 50.8487 69.4067C51.0097 68.9463 50.9919 68.4374 50.7991 67.9908L50.6879 67.729C50.5474 67.4063 50.3221 67.133 50.0387 66.9417C49.7554 66.7504 49.426 66.6491 49.0898 66.6498H49.0695Z" fill="#231F20"/>
<path d="M43.1625 57.1244C43.1625 57.1244 34.828 60.0574 36.679 61.9326C38.53 63.8078 44.6898 62.0608 44.6898 62.0608C44.6898 62.0608 39.0307 63.2148 39.7286 67.8094" fill="white"/>
<path d="M39.7286 68.0548C39.6669 68.0545 39.6073 68.0314 39.5602 67.9894C39.513 67.9474 39.4814 67.8892 39.4707 67.8251C39.0863 65.3088 40.5226 63.7648 41.9993 62.8672C40.0573 63.1397 37.6248 63.2038 36.5223 62.1033C36.3859 61.9823 36.2832 61.8244 36.2253 61.6466C36.1674 61.4687 36.1564 61.2775 36.1935 61.0935C36.5931 59.1916 42.4393 57.0867 43.1018 56.8516C43.1676 56.8296 43.2389 56.8357 43.3004 56.8687C43.3618 56.9017 43.4086 56.9589 43.4306 57.0279C43.4417 57.0619 43.4463 57.0979 43.4442 57.1339C43.4421 57.1698 43.4332 57.2049 43.4182 57.2372C43.4031 57.2695 43.3822 57.2983 43.3565 57.322C43.3309 57.3456 43.301 57.3637 43.2687 57.3752C40.8614 58.2193 36.9572 60.009 36.6942 61.2111C36.6753 61.3023 36.682 61.3974 36.7135 61.4847C36.7449 61.5719 36.7997 61.6477 36.8712 61.7026C38.3884 63.1985 43.0563 62.162 44.3156 61.8468C44.5179 61.7881 44.6393 61.7613 44.6494 61.7613C44.7156 61.7484 44.784 61.7629 44.8404 61.8016C44.8969 61.8404 44.9371 61.9005 44.9528 61.9697C44.9611 62.0041 44.9628 62.0399 44.9579 62.075C44.9529 62.1101 44.9414 62.1438 44.924 62.1741C44.9066 62.2045 44.8836 62.2308 44.8564 62.2517C44.8292 62.2725 44.7984 62.2875 44.7657 62.2956L44.3662 62.4024C43.5645 62.6332 42.7969 62.9802 42.0853 63.4335C40.4265 64.502 39.7235 65.9659 39.9966 67.7396C40.0069 67.8118 39.9898 67.8853 39.9491 67.9443C39.9084 68.0033 39.8474 68.043 39.7792 68.0548H39.7286Z" fill="#231F20"/>
<path d="M138.569 126.475C138.569 126.475 129.36 128.756 127.246 137.523L139.383 155.191L155.845 130.925L143.707 135.311L138.569 126.475Z" fill="white"/>
<path d="M139.368 155.469C139.327 155.468 139.287 155.458 139.25 155.438C139.213 155.419 139.181 155.391 139.156 155.356L127.018 137.683C126.996 137.651 126.98 137.613 126.973 137.573C126.966 137.534 126.968 137.493 126.978 137.454C129.107 128.628 138.402 126.234 138.498 126.208C138.551 126.194 138.607 126.199 138.657 126.221C138.707 126.243 138.749 126.281 138.776 126.331L143.773 134.98L155.734 130.663C155.786 130.643 155.844 130.641 155.897 130.658C155.951 130.675 155.998 130.71 156.031 130.758C156.064 130.806 156.081 130.863 156.081 130.922C156.08 130.981 156.061 131.039 156.027 131.085L139.565 155.351C139.53 155.426 139.449 155.495 139.368 155.469ZM127.529 137.464L139.368 154.721L155.142 131.465L143.758 135.573C143.702 135.594 143.64 135.594 143.584 135.573C143.527 135.551 143.48 135.51 143.449 135.456L138.448 126.795C137.168 127.169 129.466 129.734 127.529 137.464Z" fill="#231F20"/>
<path d="M140.041 155.848C135.55 152.108 140.486 146.231 145.199 139.585C148.588 134.831 154.869 129.013 157.908 131.529C161.403 134.425 145.376 160.271 140.041 155.848Z" fill="#D1D3D4"/>
<path d="M141.477 156.633C140.899 156.643 140.335 156.443 139.879 156.067C135.565 152.493 139.565 146.953 143.798 141.108L144.977 139.398C147.743 135.52 152.234 131.128 155.567 130.669C156 130.587 156.444 130.6 156.872 130.708C157.301 130.816 157.703 131.015 158.055 131.294C158.561 131.721 158.753 132.539 158.591 133.725C157.843 139.308 149.033 153.711 143.07 156.243C142.567 156.478 142.027 156.611 141.477 156.633ZM140.203 155.634C140.87 156.169 141.775 156.227 142.893 155.752C148.239 153.481 157.301 139.521 158.09 133.666C158.181 132.998 158.197 132.117 157.752 131.748C157.455 131.512 157.116 131.342 156.755 131.25C156.394 131.158 156.019 131.146 155.653 131.214C152.618 131.636 148.193 135.819 145.407 139.73L144.213 141.397C139.965 147.273 136.293 152.37 140.203 155.613V155.634Z" fill="#231F20"/>
<path d="M63.665 148.598L61.8444 135.242C56.4593 136.754 50.9188 137.561 45.3473 137.646C45.3473 137.646 42.4191 158.658 43.7593 158.727C45.0995 158.797 50.0304 149.784 50.0304 149.784C50.0304 149.784 54.2179 151.686 63.665 148.598Z" fill="white"/>
<path d="M43.7543 159C43.6951 158.996 43.6373 158.979 43.585 158.949C43.5326 158.92 43.4869 158.879 43.4508 158.829C42.3888 157.472 44.6342 140.91 45.0945 137.609C45.1019 137.543 45.1318 137.483 45.1785 137.44C45.2251 137.397 45.2852 137.373 45.3473 137.374C50.8989 137.286 56.4198 136.485 61.7887 134.991C61.8249 134.979 61.8633 134.975 61.9009 134.981C61.9386 134.986 61.9746 135.001 62.0062 135.023C62.0381 135.044 62.0651 135.072 62.0852 135.105C62.1054 135.138 62.1181 135.176 62.1225 135.215L63.9432 148.571C63.951 148.637 63.9371 148.703 63.9039 148.758C63.8706 148.814 63.8202 148.855 63.7611 148.876C55.4064 151.617 51.1178 150.479 50.1518 150.137C48.847 152.466 45.1248 159 43.7543 159ZM45.5547 137.918C44.2651 147.257 43.2283 157.472 43.8099 158.45C44.6191 158.3 47.4562 153.914 49.7877 149.651C49.8196 149.592 49.8706 149.548 49.9311 149.526C49.9916 149.505 50.0574 149.507 50.1164 149.533C50.1619 149.533 54.3089 151.333 63.3717 148.406L61.6269 135.584C56.3725 137.013 50.9793 137.797 45.5547 137.918Z" fill="#231F20"/>
<path d="M61.8444 135.253C61.8444 135.253 60.0895 137.064 60.0895 142.796C60.0895 145.89 62.1124 149.907 63.665 148.598C65.2176 147.289 65.9863 135.247 61.8444 135.253Z" fill="#231F20"/>
<path d="M63.048 149.132C62.839 149.129 62.6334 149.076 62.4462 148.978C61.1111 148.299 59.8417 145.297 59.8417 142.796C59.8417 137.016 61.6016 135.135 61.6775 135.055C61.7281 135.005 61.7953 134.978 61.8646 134.98C63.0531 134.98 63.9786 135.872 64.545 137.561C65.7132 141.065 65.1013 147.743 63.842 148.812C63.6214 149.014 63.3402 149.128 63.048 149.132ZM61.9759 135.53C61.6623 135.942 60.3676 137.929 60.3676 142.796C60.3676 145.072 61.5106 147.888 62.6738 148.481C62.806 148.558 62.9577 148.59 63.108 148.573C63.2582 148.556 63.3998 148.49 63.5133 148.385C64.4135 147.621 65.2581 141.359 64.0494 137.742C63.5538 136.332 62.866 135.589 61.9607 135.53H61.9759Z" fill="#231F20"/>
<path d="M123.19 57.3914C123.138 57.3909 123.088 57.3745 123.046 57.3442C123.003 57.314 122.97 57.2713 122.95 57.2213C122.93 57.1713 122.924 57.1163 122.934 57.063C122.943 57.0096 122.967 56.9604 123.003 56.9213L134.129 44.8152C134.153 44.7892 134.181 44.7685 134.213 44.7544C134.245 44.7403 134.279 44.733 134.313 44.733C134.348 44.733 134.382 44.7403 134.413 44.7544C134.445 44.7685 134.474 44.7892 134.498 44.8152C134.546 44.8672 134.574 44.9372 134.574 45.0102C134.574 45.0832 134.546 45.1532 134.498 45.2052L123.372 57.3113C123.348 57.3368 123.32 57.3571 123.288 57.3709C123.257 57.3846 123.224 57.3916 123.19 57.3914Z" fill="#D1D3D4"/>
<path d="M99.1827 51.3383C99.1155 51.337 99.0514 51.3086 99.0034 51.2589C98.9555 51.2092 98.9273 51.142 98.9248 51.0711L98.3482 36.2885C98.3469 36.252 98.3523 36.2156 98.3643 36.1813C98.3763 36.1471 98.3946 36.1157 98.418 36.0889C98.4415 36.0621 98.4698 36.0404 98.5012 36.0252C98.5326 36.0099 98.5665 36.0014 98.6011 36C98.6696 35.9999 98.7356 36.0275 98.7855 36.0772C98.8353 36.1269 98.8652 36.1948 98.8691 36.2671L99.4608 51.0498C99.4623 51.1231 99.4367 51.1941 99.3895 51.2479C99.3424 51.3018 99.2773 51.3341 99.208 51.3383H99.1827Z" fill="#D1D3D4"/>
<path d="M66.9926 62.1301C66.9567 62.1308 66.9211 62.1235 66.888 62.1088C66.8549 62.0941 66.8251 62.0722 66.8004 62.0446L52.9939 46.1935C52.9659 46.1679 52.9432 46.1363 52.9276 46.1009C52.9119 46.0654 52.9035 46.0268 52.9029 45.9877C52.9023 45.9485 52.9095 45.9097 52.9241 45.8737C52.9387 45.8377 52.9604 45.8054 52.9877 45.7789C53.0149 45.7524 53.0472 45.7323 53.0823 45.7198C53.1175 45.7074 53.1547 45.7029 53.1916 45.7068C53.2284 45.7106 53.2641 45.7226 53.2963 45.7421C53.3285 45.7615 53.3564 45.7879 53.3783 45.8195L67.1848 61.6707C67.2333 61.7226 67.2605 61.7927 67.2605 61.8657C67.2605 61.9386 67.2333 62.0087 67.1848 62.0607C67.1589 62.0854 67.1285 62.1043 67.0954 62.1162C67.0624 62.1282 67.0274 62.1329 66.9926 62.1301Z" fill="#D1D3D4"/>
<path d="M19.1907 108.236C19.1358 108.219 19.0875 108.184 19.053 108.136C19.0186 108.088 19 108.029 19 107.969C19 107.908 19.0186 107.849 19.053 107.801C19.0875 107.753 19.1358 107.718 19.1907 107.701L53.1811 105.351C53.2193 105.336 53.2601 105.332 53.3003 105.337C53.3405 105.342 53.3791 105.357 53.4129 105.38C53.4468 105.404 53.4751 105.435 53.4956 105.472C53.516 105.509 53.5282 105.551 53.531 105.593C53.5338 105.636 53.5273 105.679 53.5119 105.718C53.4965 105.758 53.4726 105.793 53.4422 105.821C53.4117 105.85 53.3755 105.87 53.3364 105.881C53.2972 105.892 53.2562 105.893 53.2165 105.885L19.2261 108.236H19.1907Z" fill="#D1D3D4"/>
<path d="M37.1947 130.605C37.1439 130.605 37.0941 130.59 37.0517 130.561C37.0093 130.531 36.9763 130.489 36.957 130.439C36.9299 130.372 36.929 130.296 36.9546 130.228C36.9802 130.16 37.0301 130.105 37.0936 130.076L51.0518 123.873C51.1133 123.855 51.1787 123.862 51.236 123.891C51.2932 123.921 51.3384 123.971 51.3631 124.033C51.3879 124.095 51.3904 124.165 51.3704 124.229C51.3503 124.293 51.309 124.347 51.2541 124.381L37.2959 130.583C37.2642 130.598 37.2295 130.606 37.1947 130.605Z" fill="#D1D3D4"/>
<path d="M146.266 106.499C146.206 106.499 146.148 106.477 146.102 106.436C146.055 106.395 146.024 106.338 146.014 106.275C146.007 106.24 146.007 106.203 146.014 106.168C146.021 106.132 146.034 106.099 146.054 106.069C146.073 106.039 146.098 106.014 146.126 105.994C146.155 105.974 146.187 105.961 146.221 105.955L180.692 98.8918C180.725 98.884 180.759 98.8834 180.793 98.8901C180.826 98.8967 180.858 98.9104 180.886 98.9304C180.915 98.9503 180.939 98.9761 180.958 99.0062C180.976 99.0363 180.989 99.0701 180.995 99.1055C181.009 99.1777 180.994 99.2527 180.955 99.3138C180.916 99.3749 180.856 99.4172 180.788 99.4314L146.317 106.494L146.266 106.499Z" fill="#D1D3D4"/>
<path d="M169.909 126.753H169.844L148.274 120.796C148.237 120.79 148.202 120.777 148.171 120.756C148.14 120.735 148.113 120.708 148.092 120.675C148.072 120.642 148.058 120.606 148.052 120.567C148.045 120.528 148.047 120.489 148.056 120.451C148.066 120.413 148.083 120.378 148.106 120.347C148.129 120.317 148.158 120.292 148.191 120.274C148.224 120.256 148.26 120.245 148.297 120.243C148.334 120.241 148.371 120.248 148.406 120.262L169.975 126.219C170.03 126.241 170.075 126.283 170.105 126.336C170.135 126.389 170.147 126.451 170.139 126.513C170.132 126.574 170.105 126.631 170.063 126.674C170.022 126.718 169.968 126.746 169.909 126.753Z" fill="#D1D3D4"/>
<path d="M80.162 51.3383C80.1079 51.3386 80.0552 51.3206 80.0115 51.287C79.9678 51.2533 79.9355 51.2058 79.9192 51.1513L77.866 45.0983C77.854 45.0643 77.8485 45.0281 77.8499 44.9918C77.8513 44.9556 77.8595 44.92 77.8741 44.8871C77.8887 44.8543 77.9094 44.8248 77.9349 44.8005C77.9605 44.7763 77.9903 44.7576 78.0227 44.7457C78.0879 44.7229 78.1588 44.7274 78.2209 44.7582C78.283 44.789 78.3315 44.8438 78.3565 44.9113L80.4098 50.9696C80.4327 51.0384 80.4291 51.1139 80.3997 51.1798C80.3704 51.2458 80.3177 51.2969 80.253 51.3222L80.162 51.3383Z" fill="#D1D3D4"/>
<path d="M44.1739 91.2252C44.1406 91.2327 44.1061 91.2327 44.0728 91.2252L33.7862 86.7054C33.723 86.6771 33.6729 86.6238 33.6464 86.5569C33.62 86.49 33.6193 86.4149 33.6446 86.3475C33.6724 86.2804 33.7238 86.2273 33.788 86.1994C33.8521 86.1715 33.924 86.171 33.9885 86.1979L44.2751 90.7176C44.3382 90.746 44.3884 90.7993 44.4148 90.8662C44.4413 90.933 44.442 91.0082 44.4167 91.0756C44.3933 91.1218 44.3582 91.1603 44.3154 91.1867C44.2725 91.2131 44.2235 91.2264 44.1739 91.2252Z" fill="#D1D3D4"/>
<defs>
<linearGradient id="paint0_linear_44_54" x1="100" y1="0" x2="100" y2="200" gradientUnits="userSpaceOnUse">
<stop offset="0.11" stop-color="#833AB4" stop-opacity="0.8"/>
<stop offset="0.63" stop-color="#FD1D1D" stop-opacity="0.8"/>
<stop offset="0.9999" stop-color="#FCB045" stop-opacity="0.8"/>
<stop offset="1" stop-color="#D9D9D9" stop-opacity="0"/>
</linearGradient>
</defs>
</svg>
